<svg xmlns="http://www.w3.org/2000/svg" viewBox="0 0 1814 512" width="1814" height="512" role="img" aria-labelledby="t" xmlns:c2pa="http://c2pa.org/manifest"><metadata><c2pa:manifest>AAAWgmp1bWIAAAAeanVtZGMycGEAEQAQgAAAqgA4m3EDYzJwYQAAABZcanVtYgAAAEdqdW1kYzJtYQARABCAAACqADibcQN1cm46YzJwYTozYzZmODM2Mi03ZGY3LTRjZmQtOTM4ZC1kOWJlYjk4MmU3OGYAAAADl2p1bWIAAAApanVtZGMyYXMAEQAQgAAAqgA4m3EDYzJwYS5hc3NlcnRpb25zAAAAALxqdW1iAAAARGp1bWRjYm9yABEAEIAAAKoAOJtxE2MycGEuaW5ncmVkaWVudC52MwAAAAAYYzJzaJ3vmi2X/MtJ+psge+7haWYAAABwY2JvcqNpZGM6Zm9ybWF0bWltYWdlL3N2Zyt4bWxqaW5zdGFuY2VJRHgseG1wOmlpZDplZjEzOTIyYS1kNjYzLTQwZjgtYmQzZS0zYzhlYzlmYWNmYTNscmVsYXRpb25zaGlwaHBhcmVudE9mAAAB4mp1bWIAAABBanVtZGNib3IAEQAQgAAAqgA4m3ETYzJwYS5hY3Rpb25zLnYyAAAAABhjMnNoih6s4xP8EFU02OKR4P/BiAAAAZljYm9yomdhY3Rpb25zgqJmYWN0aW9ua2MycGEub3BlbmVkanBhcmFtZXRlcnOha2luZ3JlZGllbnRzgaJjdXJseC1zZWxmI2p1bWJmPWMycGEuYXNzZXJ0aW9ucy9jMnBhLmluZ3JlZGllbnQudjNkaGFzaFggZYZGMB7qIkstO+y1Zgh3/inq+utndTHoyOrArLtv67ykZmFjdGlvbngdY29tLmFudGhyb3BpYy5jbGF1ZGUucHJvdmlkZWRqcGFyYW1ldGVyc6F4H2NvbS5hbnRocm9waWMub3JpZ2luLWNvbmZpZGVuY2VndW5rbm93bmtkZXNjcmlwdGlvbnhmQ2xhdWRlIHByb3ZpZGVkIHRoaXMgZmlsZSBhdCB0aGUgcmVxdWVzdCBvZiBhIHVzZXIgYW5kIG1heSBoYXZlIGNyZWF0ZWQgb3IgbW9kaWZpZWQgdGhlIGZpbGUgY29udGVudHMubXNvZnR3YXJlQWdlbnShZG5hbWVmQ2xhdWRlcmFsbEFjdGlvbnNJbmNsdWRlZPUAAADIanVtYgAAAEBqdW1kY2JvcgARABCAAACqADibcRNjMnBhLmhhc2guZGF0YQAAAAAYYzJzaFvZ5FR58OKBX6KEfbZx22oAAACAY2JvcqVjYWxnZnNoYTI1NmNwYWRNAAAAAAAAAAAAAAAAAGRoYXNoWCCD2TGt1ymbE9DoUVQKhi5fHIjRSYZUmr7oLiA74S4ZJWRuYW1lbmp1bWJmIG1hbmlmZXN0amV4Y2x1c2lvbnOBomVzdGFydBi3Zmxlbmd0aBkeBAAAAj5qdW1iAAAAJ2p1bWRjMmNsABEAEIAAAKoAOJtxA2MycGEuY2xhaW0udjIAAAACD2Nib3KlY2FsZ2ZzaGEyNTZpc2lnbmF0dXJleE1zZWxmI2p1bWJmPS9jMnBhL3VybjpjMnBhOjNjNmY4MzYyLTdkZjctNGNmZC05MzhkLWQ5YmViOTgyZTc4Zi9jMnBhLnNpZ25hdHVyZWppbnN0YW5jZUlEeCx4bXA6aWlkOjg1ZjI3MDY0LWM2YTMtNGU4YS1iYjhkLWQ5MjcyNmM2NWUyMnJjcmVhdGVkX2Fzc2VydGlvbnODomN1cmx4LXNlbGYjanVtYmY9YzJwYS5hc3NlcnRpb25zL2MycGEuaW5ncmVkaWVudC52M2RoYXNoWCBlhkYwHuoiSy077LVmCHf+Ker662d1MejI6sCsu2/rvKJjdXJseCpzZWxmI2p1bWJmPWMycGEuYXNzZXJ0aW9ucy9jMnBhLmFjdGlvbnMudjJkaGFzaFggYKIR7AHNSgH4kocUZrakqqr9tuvVpXY9ACtTohwYmT+iY3VybHgpc2VsZiNqdW1iZj1jMnBhLmFzc2VydGlvbnMvYzJwYS5oYXNoLmRhdGFkaGFzaFgg36jMgz83gdg+pRCYsZ3olhRfXeHxOCqTReIDWZDgY5d0Y2xhaW1fZ2VuZXJhdG9yX2luZm+jZG5hbWVvQW50aHJvcGljIEZpbGVzZ3ZlcnNpb25lMS4wLjBrc3BlY1ZlcnNpb25lMi40LjAAABA4anVtYgAAAChqdW1kYzJjcwARABCAAACqADibcQNjMnBhLnNpZ25hdHVyZQAAABAIY2JvctKEWQISogEmGCFZAgowggIGMIIBjaADAgECAhRA5aAK7sI50L64g/oGQgU9Z1UTADAKBggqhkjOPQQDAzBJMRcwFQYDVQQKEw5BbnRocm9waWMsIFBCQzEuMCwGA1UEAxMlQW50aHJvcGljIENvbnRlbnQgQ3JlZGVudGlhbHMgUm9vdCBDQTAeFw0yNjA4MDcxODQzNTZaFw0yODA4MDYxOTQzNTZaMEQxFzAVBgNVBAoTDkFudGhyb3BpYywgUEJDMSkwJwYDVQQDEyBBbnRocm9waWMgQ2xhdWRlIENvbnRlbnQgU2lnbmluZzBZMBMGByqGSM49AgEGCCqGSM49AwEHA0IABJh6CmvLUBgFFNU0vUKlOVtE6djd17L5SuwX0LemFisBM3dkd/3cyjxFA3Qo5S46fX0/ihY0VZ7mfb9KF703t5OjWDBWMA4GA1UdDwEB/wQEAwIHgDAVBgNVHSUEDjAMBgorBgEEAYPoXgIBMAwGA1UdEwEB/wQCMAAwHwYDVR0jBBgwFoAUzlHiBIFOZFsj+OPEz5o+nMHXXMIwCgYIKoZIzj0EAwMDZwAwZAIwMXMdFJ4BetLLVY7ORuE9noqbbAZOZn/aArXyTwFAZfKrPzxF2vPoJNf1+UCdg1XGAjBwX1zd9WGqYkqmL5SFqw1QySjr1zJfpJM9+1rdDwSPLMOPOjKuiXjoU/pUUeG9RwmhY3BhZFkNngAAAAAAAAAAAAAAAAAAAAAAAAAAAAAAAAAAAAAAAAAAAAAAAAAAAAAAAAAAAAAAAAAAAAAAAAAAAAAAAAAAAAAAAAAAAAAAAAAAAAAAAAAAAAAAAAAAAAAAAAAAAAAAAAAAAAAAAAAAAAAAAAAAAAAAAAAAAAAAAAAAAAAAAAAAAAAAAAAAAAAAAAAAAAAAAAAAAAAAAAAAAAAAAAAAAAAAAAAAAAAAAAAAAAAAAAAAAAAAAAAAAAAAAAAAAAAAAAAAAAAAAAAAAAAAAAAAAAAAAAAAAAAAAAAAAAAAAAAAAAAAAAAAAAAAAAAAAAAAAAAAAAAAAAAAAAAAAAAAAAAAAAAAAAAAAAAAAAAAAAAAAAAAAAAAAAAAAAAAAAAAAAAAAAAAAAAAAAAAAAAAAAAAAAAAAAAAAAAAAAAAAAAAAAAAAAAAAAAAAAAAAAAAAAAAAAAAAAAAAAAAAAAAAAAAAAAAAAAAAAAAAAAAAAAAAAAAAAAAAAAAAAAAAAAAAAAAAAAAAAAAAAAAAAAAAAAAAAAAAAAAAAAAAAAAAAAAAAAAAAAAAAAAAAAAAAAAAAAAAAAAAAAAAAAAAAAAAAAAAAAAAAAAAAAAAAAAAAAAAAAAAAAAAAAAAAAAAAAAAAAAAAAAAAAAAAAAAAAAAAAAAAAAAAAAAAAAAAAAAAAAAAAAAAAAAAAAAAAAAAAAAAAAAAAAAAAAAAAAAAAAAAAAAAAAAAAAAAAAAAAAAAAAAAAAAAAAAAAAAAAAAAAAAAAAAAAAAAAAAAAAAAAAAAAAAAAAAAAAAAAAAAAAAAAAAAAAAAAAAAAAAAAAAAAAAAAAAAAAAAAAAAAAAAAAAAAAAAAAAAAAAAAAAAAAAAAAAAAAAAAAAAAAAAAAAAAAAAAAAAAAAAAAAAAAAAAAAAAAAAAAAAAAAAAAAAAAAAAAAAAAAAAAAAAAAAAAAAAAAAAAAAAAAAAAAAAAAAAAAAAAAAAAAAAAAAAAAAAAAAAAAAAAAAAAAAAAAAAAAAAAAAAAAAAAAAAAAAAAAAAAAAAAAAAAAAAAAAAAAAAAAAAAAAAAAAAAAAAAAAAAAAAAAAAAAAAAAAAAAAAAAAAAAAAAAAAAAAAAAAAAAAAAAAAAAAAAAAAAAAAAAAAAAAAAAAAAAAAAAAAAAAAAAAAAAAAAAAAAAAAAAAAAAAAAAAAAAAAAAAAAAAAAAAAAAAAAAAAAAAAAAAAAAAAAAAAAAAAAAAAAAAAAAAAAAAAAAAAAAAAAAAAAAAAAAAAAAAAAAAAAAAAAAAAAAAAAAAAAAAAAAAAAAAAAAAAAAAAAAAAAAAAAAAAAAAAAAAAAAAAAAAAAAAAAAAAAAAAAAAAAAAAAAAAAAAAAAAAAAAAAAAAAAAAAAAAAAAAAAAAAAAAAAAAAAAAAAAAAAAAAAAAAAAAAAAAAAAAAAAAAAAAAAAAAAAAAAAAAAAAAAAAAAAAAAAAAAAAAAAAAAAAAAAAAAAAAAAAAAAAAAAAAAAAAAAAAAAAAAAAAAAAAAAAAAAAAAAAAAAAAAAAAAAAAAAAAAAAAAAAAAAAAAAAAAAAAAAAAAAAAAAAAAAAAAAAAAAAAAAAAAAAAAAAAAAAAAAAAAAAAAAAAAAAAAAAAAAAAAAAAAAAAAAAAAAAAAAAAAAAAAAAAAAAAAAAAAAAAAAAAAAAAAAAAAAAAAAAAAAAAAAAAAAAAAAAAAAAAAAAAAAAAAAAAAAAAAAAAAAAAAAAAAAAAAAAAAAAAAAAAAAAAAAAAAAAAAAAAAAAAAAAAAAAAAAAAAAAAAAAAAAAAAAAAAAAAAAAAAAAAAAAAAAAAAAAAAAAAAAAAAAAAAAAAAAAAAAAAAAAAAAAAAAAAAAAAAAAAAAAAAAAAAAAAAAAAAAAAAAAAAAAAAAAAAAAAAAAAAAAAAAAAAAAAAAAAAAAAAAAAAAAAAAAAAAAAAAAAAAAAAAAAAAAAAAAAAAAAAAAAAAAAAAAAAAAAAAAAAAAAAAAAAAAAAAAAAAAAAAAAAAAAAAAAAAAAAAAAAAAAAAAAAAAAAAAAAAAAAAAAAAAAAAAAAAAAAAAAAAAAAAAAAAAAAAAAAAAAAAAAAAAAAAAAAAAAAAAAAAAAAAAAAAAAAAAAAAAAAAAAAAAAAAAAAAAAAAAAAAAAAAAAAAAAAAAAAAAAAAAAAAAAAAAAAAAAAAAAAAAAAAAAAAAAAAAAAAAAAAAAAAAAAAAAAAAAAAAAAAAAAAAAAAAAAAAAAAAAAAAAAAAAAAAAAAAAAAAAAAAAAAAAAAAAAAAAAAAAAAAAAAAAAAAAAAAAAAAAAAAAAAAAAAAAAAAAAAAAAAAAAAAAAAAAAAAAAAAAAAAAAAAAAAAAAAAAAAAAAAAAAAAAAAAAAAAAAAAAAAAAAAAAAAAAAAAAAAAAAAAAAAAAAAAAAAAAAAAAAAAAAAAAAAAAAAAAAAAAAAAAAAAAAAAAAAAAAAAAAAAAAAAAAAAAAAAAAAAAAAAAAAAAAAAAAAAAAAAAAAAAAAAAAAAAAAAAAAAAAAAAAAAAAAAAAAAAAAAAAAAAAAAAAAAAAAAAAAAAAAAAAAAAAAAAAAAAAAAAAAAAAAAAAAAAAAAAAAAAAAAAAAAAAAAAAAAAAAAAAAAAAAAAAAAAAAAAAAAAAAAAAAAAAAAAAAAAAAAAAAAAAAAAAAAAAAAAAAAAAAAAAAAAAAAAAAAAAAAAAAAAAAAAAAAAAAAAAAAAAAAAAAAAAAAAAAAAAAAAAAAAAAAAAAAAAAAAAAAAAAAAAAAAAAAAAAAAAAAAAAAAAAAAAAAAAAAAAAAAAAAAAAAAAAAAAAAAAAAAAAAAAAAAAAAAAAAAAAAAAAAAAAAAAAAAAAAAAAAAAAAAAAAAAAAAAAAAAAAAAAAAAAAAAAAAAAAAAAAAAAAAAAAAAAAAAAAAAAAAAAAAAAAAAAAAAAAAAAAAAAAAAAAAAAAAAAAAAAAAAAAAAAAAAAAAAAAAAAAAAAAAAAAAAAAAAAAAAAAAAAAAAAAAAAAAAAAAAAAAAAAAAAAAAAAAAAAAAAAAAAAAAAAAAAAAAAAAAAAAAAAAAAAAAAAAAAAAAAAAAAAAAAAAAAAAAAAAAAAAAAAAAAAAAAAAAAAAAAAAAAAAAAAAAAAAAAAAAAAAAAAAAAAAAAAAAAAAAAAAAAAAAAAAAAAAAAAAAAAAAAAAAAAAAAAAAAAAAAAAAAAAAAAAAAAAAAAAAAAAAAAAAAAAAAAAAAAAAAAAAAAAAAAAAAAAAAAAAAAAAAAAAAAAAAAAAAAAAAAAAAAAAAAAAAAAAAAAAAAAAAAAAAAAAAAAAAAAAAAAAAAAAAAAAAAAAAAAAAAAAAAAAAAAAAAAAAAAAAAAAAAAAAAAAAAAAAAAAAAAAAAAAAAAAAAAAAAAAAAAAAAAAAAAAAAAAAAAAAAAAAAAAAAAAAAAAAAAAAAAAAAAAAAAAAAAAAAAAAAAAAAAAAAAAAAAAAAAAAAAAAAAAAAAAAAAAAAAAAAAAAAAAAAAAAAAAAAAAAAAAAAAAAAAAAAAAAAAAAAAAAAAAAAAAAAAAAAAAAAAAAAAAAAAAAAAAAAAAAAAAAAAAAAAAAAAAAAAAAAAAAAAAAAAAAAAAAAAAAAAAAAAAAAAAAAAAAAAAAAAAAAAAAAAAAAAAAAAAAAAAAAAAAAAAAAAAAAAAAAAAAAAAAAAAAAAAAAAAAAAAAAAAAAAAAAAAAAAAAAAAAAAAAAAAAAAAAAAAAAAAAAAAAAAAAAAAAAAAAAAAAAAAAAAAAAAAAAAAAAAAAAAAAAAAAAAAAAAAAAAAAAAAAAAAAAAAAAAAAAAAAAAAAAAAAAAAAAAAAAAAAAAAAAAAAAAAAAAAAAAAAAAAAAAAAAAAAAAAAAAAAAAAAAAAAAAAAAAAAAAAAAAAAAAAAAAAAAAAAAAAAAAAAAAAAAAAAAAAAAAAAAAAAAAAAAAAAAAAAAAAAAAAAAAAAAAAAAAAAAAAAAAAAAAAAAAAAAAAAAAAAAAAAAAAAAAAAAAAAAAAAAAAAAAAAAAAAAAAAAAAAAAAAAAAAAAAAAAAAAAAAAAAAAAAAAAAAAAAAAAAAAAAAAAAAAAAAAAAAAAAAAAAAAAAAAAAAAAAAAAAAAAAAAAAAAAAAAAAAAAAAAAAAAAAAAAAAAAAAAAAAAAAAAAAAAAAAAAAAAAAAAAAAAAAAAAAAAAAAAAAAAAAAAAAAAAAAAAAAAAAAAAAAAAAAAAAAAAAAAAAAAAAAAAAAAAAAAAAAAAAAAAAAAAAAAAAAAAAAAAAAAAAAAAAAAAAAAAAAAAAAAAAAAAAAAAAAAAAAAAAAAAAAAAAAAAAAAAAAAAAAAAAAAAAAAAAAAAAAAAAAAAAAAAAAAAAAAAAAAAAAAAAAAAAAAAAAAAAAAAAAAAAAAAAAAAAAAAAAAAAAAAAAAAAAAAAAAAAAAAAAAAAAAAAAAAAAAAAAAAAAAAAAAAAAAAAAAAAAAAAAAAAAAAAAAAAAAAAAAAAAAAAAAAAAAAAAAAAAAAAAAAAAAAAAAAAAAAAAAAAAAAAAAAAAAAAAAAAAAAAAAAAAAAAAAAAAAAAAAAAAAAAAAAAAAAAAAAAAAAAAAAAAAAAAAAAAAAAAAAAAAAAAAAAPZYQGSoaWcf2hc83p/sm9rvrYeD1ZaMtZ13tfSBbkOk36qCpE9oUSdL7IK82w4fHN3cyuvkjF2hIG59Iai995UWb9o=</c2pa:manifest></metadata><title id="t">EntraPlus</title><g>
  <defs><linearGradient id="gh" x1="0" y1="0" x2="0" y2="1">
    <stop offset="0" stop-color="#163A55"/><stop offset="1" stop-color="#0B8A84"/></linearGradient></defs>
  <path d="M256 30C302 58 368 80 432 86Q452 88 452 108L452 236C452 362 366 440 264 482Q256 486 248 482C146 440 60 362 60 236L60 108Q60 88 80 86C144 80 210 58 256 30Z" fill="url(#gh)"/>
  <path d="M256 30C302 58 368 80 432 86Q452 88 452 108L452 236C452 362 366 440 264 482Q256 486 256 486Z" fill="#000" fill-opacity=".16"/>
  <path d="M256 30C302 58 368 80 432 86Q452 88 452 108L452 236C452 362 366 440 264 482Q256 486 248 482C146 440 60 362 60 236L60 108Q60 88 80 86C144 80 210 58 256 30Z" fill="none" stroke="#fff" stroke-opacity=".14" stroke-width="10" transform="translate(25.6 24) scale(.9)"/>
  <rect x="229" y="152" width="54" height="196" rx="12" fill="#F4B731"/>
  <rect x="158" y="223" width="196" height="54" rx="12" fill="#F4B731"/>
</g><path d="M572.359912109375 360.0V162.0H618.8604248046875V360.0ZM606.5204345703125 360.0V321.139599609375H713.2600830078125V360.0ZM606.5204345703125 277.68017578125V242.73984375H699.440087890625V277.68017578125ZM606.5204345703125 200.86040039062502V162.0H713.2600830078125V200.86040039062502ZM726.8199218750001 360.0V271.9196044921875L726.779931640625 201.959912109375H766.3003173828125L765.8604248046876 267.339697265625H768.3004150390625Q770.1004150390626 243.659765625 776.1703979492188 228.309814453125Q782.240380859375 212.95986328125 793.4303588867188 205.3598876953125Q804.6203369140626 197.759912109375 821.7403320312501 197.759912109375Q847.6003173828126 197.759912109375 860.6003295898438 215.0398681640625Q873.600341796875 232.31982421875 873.600341796875 266.7596923828125V360.0H827.1198242187501V272.51982421875Q827.1198242187501 255.20009765625002 821.9198852539064 246.63021240234377Q816.7199462890626 238.06032714843752 805.30009765625 238.06032714843752Q795.7602294921876 238.06032714843752 788.5503051757813 244.71024169921876Q781.340380859375 251.36015625 777.3204101562501 266.0500122070313Q773.300439453125 280.7398681640625 773.300439453125 305.1796875V360.0ZM950.360205078125 363.52001953125Q923.1600341796875 363.52001953125 909.769970703125 349.51995849609375Q896.3799072265625 335.5198974609375 896.3799072265625 306.2397216796875V238.2802734375H878.7799560546875V208.7000244140625H880.37978515625Q898.139990234375 206.4599853515625 905.6100708007813 196.8898681640625Q913.0801513671876 187.31975097656252 914.78017578125 167.93950195312502L914.9201416015625 165.9598388671875H942.3004150390625V201.959912109375H979.060302734375V239.40029296875002H942.3004150390625V302.0396484375Q942.3004150390625 313.479638671875 947.8404174804688 318.359619140625Q953.380419921875 323.239599609375 961.6203857421875 323.239599609375Q965.9203613281251 323.239599609375 970.5303344726562 321.999609375Q975.1403076171875 320.759619140625 979.060302734375 318.5396484375V359.2600341796875Q970.0402343750001 361.9200439453125 962.9502075195313 362.72003173828125Q955.8601806640626 363.52001953125 950.360205078125 363.52001953125ZM991.4199218750001 360.0V275.1596923828125L991.379931640625 201.959912109375H1031.7203369140625L1031.2804443359375 265.8596923828125H1033.7204345703126Q1035.5204345703125 240.55971679687502 1040.8204223632813 225.79976806640627Q1046.12041015625 211.0398193359375 1054.2103759765625 204.70986328125Q1062.300341796875 198.3799072265625 1072.4202880859375 198.3799072265625Q1077.7203125 198.3799072265625 1083.460339355469 199.82991943359374Q1089.2003662109375 201.279931640625 1094.800390625 204.4599609375L1092.4603759765625 255.9605712890625Q1086.04033203125 252.2205322265625 1079.90029296875 250.38050537109376Q1073.76025390625 248.540478515625 1068.22021484375 248.540478515625Q1058.3802734375001 248.540478515625 1051.5703247070314 254.300390625Q1044.7603759765625 260.060302734375 1041.1904052734376 271.24013671875Q1037.6204345703127 282.419970703125 1037.6204345703127 298.3997314453125V360.0ZM1145.0599853515625 364.1800048828125Q1133.039990234375 364.1800048828125 1122.2899780273438 359.96000976562505Q1111.5399658203125 355.7400146484375 1104.7099487304688 346.3000122070313Q1097.879931640625 336.860009765625 1097.879931640625 321.0599853515625Q1097.879931640625 306.4799560546875 1103.5199462890625 297.37994384765625Q1109.1599609375 288.279931640625 1118.7099731445314 282.73992919921875Q1128.2599853515626 277.1999267578125 1139.6999755859374 274.329931640625Q1151.1399658203125 271.4599365234375 1162.459912109375 269.3599365234375Q1178.1998779296875 266.379931640625 1186.0398681640627 264.5899291992188Q1193.8798583984376 262.7999267578125 1196.6998657226563 260.36993408203125Q1199.519873046875 257.93994140625 1199.519873046875 253.6599609375Q1199.519873046875 244.360107421875 1192.7399536132812 239.5201904296875Q1185.9600341796875 234.6802734375 1175.0601318359375 234.6802734375Q1168.240185546875 234.6802734375 1161.4402343749998 237.1802490234375Q1154.640283203125 239.680224609375 1150.2703247070312 245.98018798828124Q1145.9003662109376 252.2801513671875 1146.0803955078125 263.8201171875L1104.6599609375 260.7601318359375Q1104.2399169921875 242.200048828125 1110.5099243164063 229.94000244140625Q1116.779931640625 217.6799560546875 1127.5599731445313 210.69993896484374Q1138.3400146484375 203.719921875 1151.170068359375 200.7399169921875Q1164.0001220703125 197.759912109375 1176.7001708984376 197.759912109375Q1199.8003173828124 197.759912109375 1214.9303588867188 206.3899658203125Q1230.060400390625 215.02001953125 1237.4603881835938 231.36009521484374Q1244.8603759765624 247.7001708984375 1244.8603759765624 271.1202392578125V299.4402099609375Q1244.88037109375 309.48017578125 1244.8903686523438 319.6701416015625Q1244.9003662109376 329.860107421875 1244.9103637695312 339.9100708007812Q1244.920361328125 349.9600341796875 1244.920361328125 360.0H1204.5599609375Q1204.6599365234374 348.920068359375 1204.7399169921873 337.6301147460938Q1204.8198974609375 326.3401611328125 1204.8998779296876 313.8402099609375H1203.039892578125Q1201.7399169921875 327.6201416015625 1194.039929199219 339.0600952148437Q1186.33994140625 350.500048828125 1173.8399536132813 357.34002685546875Q1161.3399658203125 364.1800048828125 1145.0599853515625 364.1800048828125ZM1163.90029296875 330.0596923828125Q1169.4201904296874 330.0596923828125 1175.5801147460938 327.91973876953125Q1181.7400390625 325.77978515625 1187.189990234375 320.9798583984375Q1192.63994140625 316.179931640625 1196.059912109375 307.9599975585937Q1199.4798828125 299.7400634765625 1199.519873046875 287.860107421875L1199.5398681640625 280.70009765625L1207.619873046875 279.64013671875Q1205.1198974609374 283.6201171875 1199.3799438476562 286.0301147460938Q1193.639990234375 288.4401123046875 1186.4700561523437 289.80010986328125Q1179.3001220703125 291.160107421875 1171.9801879882812 292.54010009765625Q1164.66025390625 293.9200927734375 1158.4203125 296.270068359375Q1152.18037109375 298.6200439453125 1148.2904052734375 302.5699951171875Q1144.400439453125 306.5199462890625 1144.400439453125 313.45986328125Q1144.400439453125 321.5197998046875 1150.040417480469 325.78974609375Q1155.6803955078126 330.0596923828125 1163.90029296875 330.0596923828125ZM1294.7204345703126 302.980224609375V265.5198486328125H1332.7001708984376Q1351.8599609375 265.5198486328125 1361.3598388671876 257.8799194335937Q1370.859716796875 250.239990234375 1370.859716796875 232.580126953125Q1370.859716796875 215.86025390625 1362.1498291015625 207.66031494140626Q1353.43994140625 199.46037597656252 1335.7001708984376 199.46037597656252H1294.7204345703126V162.0H1338.46015625Q1355.5201660156251 162.0 1370.1501831054688 166.05999755859375Q1384.7802001953125 170.1199951171875 1395.67021484375 178.7800048828125Q1406.5602294921875 187.4400146484375 1412.6602416992187 200.57003173828127Q1418.76025390625 213.700048828125 1418.76025390625 232.1200927734375Q1418.76025390625 255.5401611328125 1408.230224609375 271.33018798828124Q1397.7001953125 287.12021484375 1377.7101684570312 295.0502197265625Q1357.7201416015625 302.980224609375 1328.6201416015626 302.980224609375ZM1260.559912109375 360.0V162.0H1307.0604248046875V360.0ZM1428.2199218750002 360.0V150.599853515625H1474.7004394531252V360.0ZM1540.2598876953127 364.1800048828125Q1514.2999267578127 364.1800048828125 1501.8399291992191 346.00004882812505Q1489.3799316406253 327.8200927734375 1489.3799316406253 290.1802001953125V201.959912109375H1535.8804443359377V289.6201904296875Q1535.8804443359377 308.2798828125 1541.0803833007815 315.8097290039062Q1546.2803222656253 323.3395751953125 1556.3601318359376 323.3395751953125Q1563.3600341796878 323.3395751953125 1569.1699707031253 319.73961181640624Q1574.9799072265628 316.1396484375 1579.3198730468753 308.77972412109375Q1583.6598388671878 301.4197998046875 1585.96982421875 289.84991455078125Q1588.2798095703126 278.280029296875 1588.2798095703126 262.040185546875V201.959912109375H1634.7603271484377V287.8201904296875L1634.8003173828126 360.0H1594.9999267578128L1595.4398193359377 297.760107421875H1593.2998291015626Q1591.3998535156252 321.0000732421875 1585.0498657226565 335.6400512695312Q1578.6998779296878 350.280029296875 1567.5898803710938 357.2300170898437Q1556.4798828125001 364.1800048828125 1540.2598876953127 364.1800048828125ZM1719.6401123046878 364.1800048828125Q1703.8600830078128 364.1800048828125 1690.320056152344 361.0300048828125Q1676.7800292968752 357.8800048828125 1666.8300048828128 350.9800048828125Q1656.8799804687503 344.0800048828125 1651.6899658203129 332.54999999999995Q1646.4999511718752 321.0199951171875 1647.4199462890626 304.5599853515625L1688.0003662109377 301.0599609375Q1688.4604003906252 311.43984375 1692.4803710937504 318.10979003906255Q1696.5003417968753 324.779736328125 1703.6902709960941 327.8497192382813Q1710.8802001953127 330.9197021484375 1721.0801269531253 330.9197021484375Q1731.2199218750002 330.9197021484375 1738.2698486328127 327.4897705078125Q1745.3197753906252 324.0598388671875 1745.3197753906252 316.259912109375Q1745.3197753906252 311.9000244140625 1742.6298461914066 309.14007568359375Q1739.9399169921878 306.380126953125 1733.1899902343753 304.09013671875Q1726.4400634765627 301.800146484375 1714.1400634765628 298.8601318359375Q1699.1599853515627 295.10009765625 1686.9799560546876 291.3000732421875Q1674.7999267578127 287.500048828125 1666.1099243164065 282.1600341796875Q1657.4199218750002 276.82001953125 1652.8799316406253 268.88001708984376Q1648.3399414062503 260.9400146484375 1648.3399414062503 249.180029296875Q1648.3399414062503 232.8999755859375 1657.0599731445316 221.449951171875Q1665.7800048828128 209.99992675781252 1681.1900512695315 203.87991943359376Q1696.6000976562502 197.759912109375 1716.8001464843753 197.759912109375Q1734.9801757812502 197.759912109375 1750.730212402344 203.459912109375Q1766.4802490234376 209.159912109375 1775.5502685546876 221.9999267578125Q1784.6202880859378 234.83994140625 1782.3402587890628 255.97998046875L1742.6198486328128 259.8199951171875Q1743.5198486328127 250.7200927734375 1740.0598876953127 244.38013916015626Q1736.5999267578127 238.04018554687502 1730.0399902343752 234.81020507812502Q1723.4800537109377 231.580224609375 1714.2201171875001 231.580224609375Q1703.5402343750002 231.580224609375 1697.640319824219 235.57016601562498Q1691.7404052734378 239.560107421875 1691.7404052734378 245.739990234375Q1691.7404052734378 250.6798828125 1695.4003540039066 253.99984130859374Q1699.0603027343752 257.3197998046875 1706.6402465820315 259.58979492187495Q1714.2201904296878 261.8597900390625 1725.9601806640628 264.5197998046875Q1736.2001708984378 266.5998046875 1747.2601806640628 269.8298217773438Q1758.3201904296877 273.0598388671875 1767.8502075195315 278.53985595703125Q1777.3802246093753 284.019873046875 1783.3302368164066 292.9598876953125Q1789.2802490234378 301.89990234375 1789.2802490234378 315.659912109375Q1789.2802490234378 330.279931640625 1781.210241699219 341.27995605468755Q1773.1402343750003 352.27998046875 1757.6602050781253 358.22999267578126Q1742.1801757812502 364.1800048828125 1719.6401123046878 364.1800048828125Z" fill="#0E1A27"/></svg>
